<svg xmlns="http://www.w3.org/2000/svg" width="1200" height="700" viewBox="0 0 1200 700">
	<rect width="1200" height="700" fill="#0f131a"/>
	<rect x="1" y="1" width="1198" height="698" rx="14" fill="none" stroke="#2a3140" stroke-width="2"/>
	<text x="36" y="52" font-family="Inter, 'Segoe UI', system-ui, sans-serif" font-size="24" font-weight="600" fill="#e6edf3">Balamentum</text>
	<text x="1164" y="52" font-family="Inter, 'Segoe UI', system-ui, sans-serif" font-size="20" fill="#9aa4b2" text-anchor="end">The “Bubbles” dial</text>
	
	<line x1="390.0" y1="206.0" x2="390.0" y2="171.5" stroke="#f0503c" stroke-width="6.4" opacity="1" stroke-linecap="round"/><line x1="401.6" y1="206.4" x2="403.0" y2="183.4" stroke="#f0523c" stroke-width="6.4" opacity="1" stroke-linecap="round"/><line x1="413.1" y1="207.5" x2="415.9" y2="184.6" stroke="#f0553c" stroke-width="6.4" opacity="1" stroke-linecap="round"/><line x1="424.5" y1="209.3" x2="428.8" y2="186.7" stroke="#f1573c" stroke-width="6.4" opacity="1" stroke-linecap="round"/><line x1="435.8" y1="211.8" x2="441.5" y2="189.5" stroke="#f1593c" stroke-width="6.4" opacity="1" stroke-linecap="round"/><line x1="446.9" y1="215.0" x2="454.0" y2="193.1" stroke="#f15b3c" stroke-width="6.4" opacity="1" stroke-linecap="round"/><line x1="457.7" y1="218.9" x2="466.2" y2="197.5" stroke="#f15e3c" stroke-width="6.4" opacity="1" stroke-linecap="round"/><line x1="468.3" y1="223.5" x2="478.1" y2="202.7" stroke="#f1603b" stroke-width="6.4" opacity="1" stroke-linecap="round"/><line x1="478.6" y1="228.8" x2="489.7" y2="208.6" stroke="#f2623b" stroke-width="6.4" opacity="1" stroke-linecap="round"/><line x1="488.6" y1="234.6" x2="500.9" y2="215.2" stroke="#f2653b" stroke-width="6.4" opacity="1" stroke-linecap="round"/><line x1="498.2" y1="241.1" x2="518.4" y2="213.2" stroke="#f2673b" stroke-width="6.4" opacity="1" stroke-linecap="round"/><line x1="507.3" y1="248.2" x2="521.9" y2="230.5" stroke="#f2693b" stroke-width="6.4" opacity="1" stroke-linecap="round"/><line x1="516.0" y1="255.9" x2="531.7" y2="239.1" stroke="#f26b3b" stroke-width="6.4" opacity="1" stroke-linecap="round"/><line x1="524.1" y1="264.0" x2="540.9" y2="248.3" stroke="#f36e3b" stroke-width="6.4" opacity="1" stroke-linecap="round"/><line x1="531.8" y1="272.7" x2="549.5" y2="258.1" stroke="#f3703b" stroke-width="6.4" opacity="1" stroke-linecap="round"/><line x1="538.9" y1="281.8" x2="557.5" y2="268.3" stroke="#f3723b" stroke-width="6.4" opacity="1" stroke-linecap="round"/><line x1="545.4" y1="291.4" x2="564.8" y2="279.1" stroke="#f3743b" stroke-width="6.4" opacity="1" stroke-linecap="round"/><line x1="551.2" y1="301.4" x2="571.4" y2="290.3" stroke="#f3773b" stroke-width="6.4" opacity="1" stroke-linecap="round"/><line x1="556.5" y1="311.7" x2="577.3" y2="301.9" stroke="#f4793b" stroke-width="6.4" opacity="1" stroke-linecap="round"/><line x1="561.1" y1="322.3" x2="582.5" y2="313.8" stroke="#f47b3a" stroke-width="6.4" opacity="1" stroke-linecap="round"/><line x1="565.0" y1="333.1" x2="597.8" y2="322.5" stroke="#f47e3a" stroke-width="6.4" opacity="1" stroke-linecap="round"/><line x1="568.2" y1="344.2" x2="590.5" y2="338.5" stroke="#f4803a" stroke-width="6.4" opacity="1" stroke-linecap="round"/><line x1="570.7" y1="355.5" x2="593.3" y2="351.2" stroke="#f4823a" stroke-width="6.4" opacity="1" stroke-linecap="round"/><line x1="572.5" y1="366.9" x2="595.4" y2="364.1" stroke="#f5843a" stroke-width="6.4" opacity="1" stroke-linecap="round"/><line x1="573.6" y1="378.4" x2="596.6" y2="377.0" stroke="#f5873a" stroke-width="6.4" opacity="1" stroke-linecap="round"/><line x1="574.0" y1="390.0" x2="597.0" y2="390.0" stroke="#f5893a" stroke-width="6.4" opacity="1" stroke-linecap="round"/><line x1="573.6" y1="401.6" x2="596.6" y2="403.0" stroke="#f58b3a" stroke-width="6.4" opacity="1" stroke-linecap="round"/><line x1="572.5" y1="413.1" x2="595.4" y2="415.9" stroke="#f58e3a" stroke-width="6.4" opacity="1" stroke-linecap="round"/><line x1="570.7" y1="424.5" x2="593.3" y2="428.8" stroke="#f4903a" stroke-width="6.4" opacity="1" stroke-linecap="round"/><line x1="568.2" y1="435.8" x2="590.5" y2="441.5" stroke="#f4923a" stroke-width="6.4" opacity="1" stroke-linecap="round"/><line x1="565.0" y1="446.9" x2="597.8" y2="457.5" stroke="#f4943a" stroke-width="6.4" opacity="1" stroke-linecap="round"/><line x1="561.1" y1="457.7" x2="582.5" y2="466.2" stroke="#f4973a" stroke-width="6.4" opacity="1" stroke-linecap="round"/><line x1="556.5" y1="468.3" x2="577.3" y2="478.1" stroke="#f3993b" stroke-width="6.4" opacity="1" stroke-linecap="round"/><line x1="551.2" y1="478.6" x2="571.4" y2="489.7" stroke="#f39b3b" stroke-width="6.4" opacity="1" stroke-linecap="round"/><line x1="545.4" y1="488.6" x2="564.8" y2="500.9" stroke="#f39e3b" stroke-width="6.4" opacity="1" stroke-linecap="round"/><line x1="538.9" y1="498.2" x2="557.5" y2="511.7" stroke="#f3a03b" stroke-width="6.4" opacity="1" stroke-linecap="round"/><line x1="531.8" y1="507.3" x2="549.5" y2="521.9" stroke="#f2a23b" stroke-width="6.4" opacity="1" stroke-linecap="round"/><line x1="524.1" y1="516.0" x2="540.9" y2="531.7" stroke="#f2a43b" stroke-width="6.4" opacity="1" stroke-linecap="round"/><line x1="516.0" y1="524.1" x2="531.7" y2="540.9" stroke="#f2a73b" stroke-width="6.4" opacity="1" stroke-linecap="round"/><line x1="507.3" y1="531.8" x2="521.9" y2="549.5" stroke="#f2a93b" stroke-width="6.4" opacity="1" stroke-linecap="round"/><line x1="498.2" y1="538.9" x2="518.4" y2="566.8" stroke="#f1ab3b" stroke-width="6.4" opacity="1" stroke-linecap="round"/><line x1="488.6" y1="545.4" x2="500.9" y2="564.8" stroke="#f1ad3b" stroke-width="6.4" opacity="1" stroke-linecap="round"/><line x1="478.6" y1="551.2" x2="489.7" y2="571.4" stroke="#f1b03b" stroke-width="6.4" opacity="1" stroke-linecap="round"/><line x1="468.3" y1="556.5" x2="478.1" y2="577.3" stroke="#f1b23b" stroke-width="6.4" opacity="1" stroke-linecap="round"/><line x1="457.7" y1="561.1" x2="466.2" y2="582.5" stroke="#f0b43c" stroke-width="6.4" opacity="1" stroke-linecap="round"/><line x1="446.9" y1="565.0" x2="454.0" y2="586.9" stroke="#f0b73c" stroke-width="6.4" opacity="1" stroke-linecap="round"/><line x1="435.8" y1="568.2" x2="441.5" y2="590.5" stroke="#f0b93c" stroke-width="6.4" opacity="1" stroke-linecap="round"/><line x1="424.5" y1="570.7" x2="428.8" y2="593.3" stroke="#f0bb3c" stroke-width="6.4" opacity="1" stroke-linecap="round"/><line x1="413.1" y1="572.5" x2="415.9" y2="595.4" stroke="#efbd3c" stroke-width="6.4" opacity="1" stroke-linecap="round"/><line x1="401.6" y1="573.6" x2="403.0" y2="596.6" stroke="#efc03c" stroke-width="6.4" opacity="1" stroke-linecap="round"/><line x1="390.0" y1="574.0" x2="390.0" y2="608.5" stroke="#efc23c" stroke-width="6.4" opacity="1" stroke-linecap="round"/><line x1="378.4" y1="573.6" x2="377.0" y2="596.6" stroke="#ecc33c" stroke-width="6.4" opacity="1" stroke-linecap="round"/><line x1="366.9" y1="572.5" x2="364.1" y2="595.4" stroke="#e9c43d" stroke-width="6.4" opacity="1" stroke-linecap="round"/><line x1="355.5" y1="570.7" x2="351.2" y2="593.3" stroke="#e7c53d" stroke-width="6.4" opacity="1" stroke-linecap="round"/><line x1="344.2" y1="568.2" x2="338.5" y2="590.5" stroke="#e4c63e" stroke-width="6.4" opacity="1" stroke-linecap="round"/><line x1="333.1" y1="565.0" x2="326.0" y2="586.9" stroke="#e1c73e" stroke-width="6.4" opacity="1" stroke-linecap="round"/><line x1="322.3" y1="561.1" x2="313.8" y2="582.5" stroke="#dec83e" stroke-width="6.4" opacity="1" stroke-linecap="round"/><line x1="311.7" y1="556.5" x2="301.9" y2="577.3" stroke="#dbc93f" stroke-width="6.4" opacity="1" stroke-linecap="round"/><line x1="301.4" y1="551.2" x2="290.3" y2="571.4" stroke="#d9ca3f" stroke-width="6.4" opacity="1" stroke-linecap="round"/><line x1="291.4" y1="545.4" x2="279.1" y2="564.8" stroke="#d6cb40" stroke-width="6.4" opacity="1" stroke-linecap="round"/><line x1="281.8" y1="538.9" x2="261.6" y2="566.8" stroke="#d3cc40" stroke-width="6.4" opacity="1" stroke-linecap="round"/><line x1="272.7" y1="531.8" x2="258.1" y2="549.5" stroke="#d0cd40" stroke-width="6.4" opacity="1" stroke-linecap="round"/><line x1="264.0" y1="524.1" x2="248.3" y2="540.9" stroke="#cdce41" stroke-width="6.4" opacity="0.15" stroke-linecap="round"/><line x1="255.9" y1="516.0" x2="239.1" y2="531.7" stroke="#cbd041" stroke-width="6.4" opacity="0.15" stroke-linecap="round"/><line x1="248.2" y1="507.3" x2="230.5" y2="521.9" stroke="#c8d142" stroke-width="6.4" opacity="0.15" stroke-linecap="round"/><line x1="241.1" y1="498.2" x2="222.5" y2="511.7" stroke="#c5d242" stroke-width="6.4" opacity="0.15" stroke-linecap="round"/><line x1="234.6" y1="488.6" x2="215.2" y2="500.9" stroke="#c2d342" stroke-width="6.4" opacity="0.15" stroke-linecap="round"/><line x1="228.8" y1="478.6" x2="208.6" y2="489.7" stroke="#bfd443" stroke-width="6.4" opacity="0.15" stroke-linecap="round"/><line x1="223.5" y1="468.3" x2="202.7" y2="478.1" stroke="#bdd543" stroke-width="6.4" opacity="0.15" stroke-linecap="round"/><line x1="218.9" y1="457.7" x2="197.5" y2="466.2" stroke="#bad644" stroke-width="6.4" opacity="0.15" stroke-linecap="round"/><line x1="215.0" y1="446.9" x2="182.2" y2="457.5" stroke="#b7d744" stroke-width="6.4" opacity="0.15" stroke-linecap="round"/><line x1="211.8" y1="435.8" x2="189.5" y2="441.5" stroke="#b4d844" stroke-width="6.4" opacity="0.15" stroke-linecap="round"/><line x1="209.3" y1="424.5" x2="186.7" y2="428.8" stroke="#b1d945" stroke-width="6.4" opacity="0.15" stroke-linecap="round"/><line x1="207.5" y1="413.1" x2="184.6" y2="415.9" stroke="#afda45" stroke-width="6.4" opacity="0.15" stroke-linecap="round"/><line x1="206.4" y1="401.6" x2="183.4" y2="403.0" stroke="#acdb46" stroke-width="6.4" opacity="0.15" stroke-linecap="round"/><line x1="206.0" y1="390.0" x2="183.0" y2="390.0" stroke="#a9dc46" stroke-width="6.4" opacity="0.15" stroke-linecap="round"/><line x1="206.4" y1="378.4" x2="183.4" y2="377.0" stroke="#a5dc49" stroke-width="6.4" opacity="0.15" stroke-linecap="round"/><line x1="207.5" y1="366.9" x2="184.6" y2="364.1" stroke="#a1db4b" stroke-width="6.4" opacity="0.15" stroke-linecap="round"/><line x1="209.3" y1="355.5" x2="186.7" y2="351.2" stroke="#9ddb4e" stroke-width="6.4" opacity="0.15" stroke-linecap="round"/><line x1="211.8" y1="344.2" x2="189.5" y2="338.5" stroke="#99db51" stroke-width="6.4" opacity="0.15" stroke-linecap="round"/><line x1="215.0" y1="333.1" x2="182.2" y2="322.5" stroke="#95da53" stroke-width="6.4" opacity="0.15" stroke-linecap="round"/><line x1="218.9" y1="322.3" x2="197.5" y2="313.8" stroke="#91da56" stroke-width="6.4" opacity="0.15" stroke-linecap="round"/><line x1="223.5" y1="311.7" x2="202.7" y2="301.9" stroke="#8cda58" stroke-width="6.4" opacity="0.15" stroke-linecap="round"/><line x1="228.8" y1="301.4" x2="208.6" y2="290.3" stroke="#88d95b" stroke-width="6.4" opacity="0.15" stroke-linecap="round"/><line x1="234.6" y1="291.4" x2="215.2" y2="279.1" stroke="#84d95e" stroke-width="6.4" opacity="0.15" stroke-linecap="round"/><line x1="241.1" y1="281.8" x2="222.5" y2="268.3" stroke="#80d960" stroke-width="6.4" opacity="0.15" stroke-linecap="round"/><line x1="248.2" y1="272.7" x2="230.5" y2="258.1" stroke="#7cd863" stroke-width="6.4" opacity="0.15" stroke-linecap="round"/><line x1="255.9" y1="264.0" x2="239.1" y2="248.3" stroke="#78d866" stroke-width="6.4" opacity="0.15" stroke-linecap="round"/><line x1="264.0" y1="255.9" x2="248.3" y2="239.1" stroke="#74d868" stroke-width="6.4" opacity="0.15" stroke-linecap="round"/><line x1="272.7" y1="248.2" x2="258.1" y2="230.5" stroke="#70d86b" stroke-width="6.4" opacity="0.15" stroke-linecap="round"/><line x1="281.8" y1="241.1" x2="261.6" y2="213.2" stroke="#6cd76e" stroke-width="6.4" opacity="0.15" stroke-linecap="round"/><line x1="291.4" y1="234.6" x2="279.1" y2="215.2" stroke="#68d770" stroke-width="6.4" opacity="0.15" stroke-linecap="round"/><line x1="301.4" y1="228.8" x2="290.3" y2="208.6" stroke="#64d773" stroke-width="6.4" opacity="0.15" stroke-linecap="round"/><line x1="311.7" y1="223.5" x2="301.9" y2="202.7" stroke="#60d676" stroke-width="6.4" opacity="0.15" stroke-linecap="round"/><line x1="322.3" y1="218.9" x2="313.8" y2="197.5" stroke="#5bd678" stroke-width="6.4" opacity="0.15" stroke-linecap="round"/><line x1="333.1" y1="215.0" x2="326.0" y2="193.1" stroke="#57d67b" stroke-width="6.4" opacity="0.15" stroke-linecap="round"/><line x1="344.2" y1="211.8" x2="338.5" y2="189.5" stroke="#53d57d" stroke-width="6.4" opacity="0.15" stroke-linecap="round"/><line x1="355.5" y1="209.3" x2="351.2" y2="186.7" stroke="#4fd580" stroke-width="6.4" opacity="0.15" stroke-linecap="round"/><line x1="366.9" y1="207.5" x2="364.1" y2="184.6" stroke="#4bd583" stroke-width="6.4" opacity="0.15" stroke-linecap="round"/><line x1="378.4" y1="206.4" x2="377.0" y2="183.4" stroke="#47d485" stroke-width="6.4" opacity="0.15" stroke-linecap="round"/>
	<circle cx="390" cy="390" r="112.44444444444443" fill="none" stroke="#9aa4b2" stroke-width="1.6" stroke-dasharray="6 5" opacity="0.65"/><circle cx="390.0" cy="390.0" r="151.8" fill="#5af2a6" opacity="0.18" filter="url(#glow)"/><circle cx="390.0" cy="390.0" r="151.8" fill="#5af2a6" fill-opacity="0.16" stroke="#5af2a6" stroke-width="2.5" stroke-opacity="0.95"/><circle cx="390.0" cy="390.0" r="151.8" fill="url(#bubble)"/><circle cx="386.5" cy="379.3" r="129.3" fill="#f0210f" opacity="0.18" filter="url(#glow)"/><circle cx="386.5" cy="379.3" r="129.3" fill="#f0210f" fill-opacity="0.16" stroke="#f0210f" stroke-width="2.5" stroke-opacity="0.95"/><circle cx="386.5" cy="379.3" r="129.3" fill="url(#bubble)"/><circle cx="410.5" cy="375.1" r="101.2" fill="#4324db" opacity="0.18" filter="url(#glow)"/><circle cx="410.5" cy="375.1" r="101.2" fill="#4324db" fill-opacity="0.16" stroke="#4324db" stroke-width="2.5" stroke-opacity="0.95"/><circle cx="410.5" cy="375.1" r="101.2" fill="url(#bubble)"/><circle cx="421.8" cy="413.1" r="73.1" fill="#e7f831" opacity="0.18" filter="url(#glow)"/><circle cx="421.8" cy="413.1" r="73.1" fill="#e7f831" fill-opacity="0.16" stroke="#e7f831" stroke-width="2.5" stroke-opacity="0.95"/><circle cx="421.8" cy="413.1" r="73.1" fill="url(#bubble)"/><circle cx="374.4" cy="438.1" r="50.6" fill="#c22aef" opacity="0.18" filter="url(#glow)"/><circle cx="374.4" cy="438.1" r="50.6" fill="#c22aef" fill-opacity="0.16" stroke="#c22aef" stroke-width="2.5" stroke-opacity="0.95"/><circle cx="374.4" cy="438.1" r="50.6" fill="url(#bubble)"/>
	<text x="390" y="644" font-family="Inter, 'Segoe UI', system-ui, sans-serif" font-size="24" fill="#9aa4b2" text-anchor="middle">Overall balance 62%</text>
	<circle cx="780" cy="160" r="9" fill="#5af2a6"/><text x="806" y="168" font-family="Inter, 'Segoe UI', system-ui, sans-serif" font-size="26" fill="#e6edf3">Relationships</text><text x="1130" y="168" font-family="'JetBrains Mono', 'SF Mono', Menlo, monospace" font-size="24" fill="#9aa4b2" text-anchor="end">1.35</text><circle cx="780" cy="222" r="9" fill="#f0210f"/><text x="806" y="230" font-family="Inter, 'Segoe UI', system-ui, sans-serif" font-size="26" fill="#e6edf3">Body</text><text x="1130" y="230" font-family="'JetBrains Mono', 'SF Mono', Menlo, monospace" font-size="24" fill="#9aa4b2" text-anchor="end">1.15</text><circle cx="780" cy="284" r="9" fill="#4324db"/><text x="806" y="292" font-family="Inter, 'Segoe UI', system-ui, sans-serif" font-size="26" fill="#e6edf3">Agency</text><text x="1130" y="292" font-family="'JetBrains Mono', 'SF Mono', Menlo, monospace" font-size="24" fill="#9aa4b2" text-anchor="end">0.90</text><circle cx="780" cy="346" r="9" fill="#e7f831"/><text x="806" y="354" font-family="Inter, 'Segoe UI', system-ui, sans-serif" font-size="26" fill="#e6edf3">Mental health</text><text x="1130" y="354" font-family="'JetBrains Mono', 'SF Mono', Menlo, monospace" font-size="24" fill="#9aa4b2" text-anchor="end">0.65</text><circle cx="780" cy="408" r="9" fill="#c22aef"/><text x="806" y="416" font-family="Inter, 'Segoe UI', system-ui, sans-serif" font-size="26" fill="#e6edf3">Meaning</text><text x="1130" y="416" font-family="'JetBrains Mono', 'SF Mono', Menlo, monospace" font-size="24" fill="#9aa4b2" text-anchor="end">0.45</text>
	<line x1="780" y1="448" x2="820" y2="448" stroke="#9aa4b2" stroke-width="1.6" stroke-dasharray="6 5"/>
	<text x="832" y="455" font-family="Inter, 'Segoe UI', system-ui, sans-serif" font-size="21" fill="#9aa4b2">target mark (actual = target)</text>
	<text x="36" y="670" font-family="Inter, 'Segoe UI', system-ui, sans-serif" font-size="20" fill="#9aa4b2">Illustration: one of nine renderings of the same answer — metric actual ÷ target, 100 ticks, one per percent point.</text>
</svg>
